<svg width="39" height="39" viewBox="0 0 39 39" fill="none" xmlns="http://www.w3.org/2000/svg">
<g clip-path="url(#clip0_249_11)">
<path fill-rule="evenodd" clip-rule="evenodd" d="M19.5 4.875C19.931 4.875 20.3443 5.0462 20.649 5.35095C20.9538 5.6557 21.125 6.06902 21.125 6.5V8.125H22.3665C22.8708 8.12503 23.3682 8.24242 23.8193 8.46788L26.3835 9.75H32.5C32.931 9.75 33.3443 9.92121 33.649 10.226C33.9538 10.5307 34.125 10.944 34.125 11.375C34.125 11.806 33.9538 12.2193 33.649 12.524C33.3443 12.8288 32.931 13 32.5 13H31.8792L35.5777 20.3986C35.6915 20.6245 35.75 20.8731 35.75 21.125C35.75 22.8489 35.0652 24.5022 33.8462 25.7212C32.6272 26.9402 30.9739 27.625 29.25 27.625C27.5261 27.625 25.8728 26.9402 24.6538 25.7212C23.4348 24.5022 22.75 22.8489 22.75 21.125C22.75 20.8731 22.8085 20.6245 22.9223 20.3986L26.6208 13H26.3835C25.8792 13 25.3818 12.8826 24.9307 12.6571L22.3665 11.375H21.125V30.875H26C26.431 30.875 26.8443 31.0462 27.149 31.351C27.4538 31.6557 27.625 32.069 27.625 32.5C27.625 32.931 27.4538 33.3443 27.149 33.649C26.8443 33.9538 26.431 34.125 26 34.125H13C12.569 34.125 12.1557 33.9538 11.851 33.649C11.5462 33.3443 11.375 32.931 11.375 32.5C11.375 32.069 11.5462 31.6557 11.851 31.351C12.1557 31.0462 12.569 30.875 13 30.875H17.875V11.375H16.6335L14.0693 12.6571C13.6182 12.8826 13.1208 13 12.6165 13H12.3792L16.0778 20.3986C16.1908 20.6241 16.2497 20.8728 16.25 21.125C16.25 22.8489 15.5652 24.5022 14.3462 25.7212C13.1272 26.9402 11.4739 27.625 9.75 27.625C8.02609 27.625 6.37279 26.9402 5.15381 25.7212C3.93482 24.5022 3.25 22.8489 3.25 21.125C3.25027 20.8728 3.30924 20.6241 3.42225 20.3986L7.12075 13H6.5C6.06902 13 5.6557 12.8288 5.35095 12.524C5.0462 12.2193 4.875 11.806 4.875 11.375C4.875 10.944 5.0462 10.5307 5.35095 10.226C5.6557 9.92121 6.06902 9.75 6.5 9.75H12.6165L15.1807 8.46788C15.6318 8.24242 16.1292 8.12503 16.6335 8.125H17.875V6.5C17.875 6.06902 18.0462 5.6557 18.351 5.35095C18.6557 5.0462 19.069 4.875 19.5 4.875ZM9.75 15.0085L6.51788 21.4711C6.60198 22.2697 6.97876 23.0089 7.57558 23.5462C8.17239 24.0834 8.94698 24.3807 9.75 24.3807C10.553 24.3807 11.3276 24.0834 11.9244 23.5462C12.5212 23.0089 12.898 22.2697 12.9821 21.4711L9.75 15.0085ZM29.25 15.0085L26.0179 21.4711C26.0998 22.2475 26.4585 22.9684 27.0283 23.5021C27.5981 24.0357 28.3409 24.3464 29.121 24.3774C29.9011 24.4084 30.6662 24.1575 31.2765 23.6707C31.8868 23.1839 32.3015 22.4937 32.4447 21.7262L32.4821 21.4727L29.25 15.0085Z" fill="#333333"/>
</g>
<defs>
<clipPath id="clip0_249_11">
<rect width="39" height="39" fill="white"/>
</clipPath>
</defs>
</svg>
