<svg width="39" height="39" viewBox="0 0 39 39" fill="none" xmlns="http://www.w3.org/2000/svg">
<path d="M14.625 24.2401V25.1875C14.625 27.1269 15.3954 28.9869 16.7668 30.3582C18.1381 31.7296 19.9981 32.5 21.9375 32.5C23.8769 32.5 25.7369 31.7296 27.1082 30.3582C28.4796 28.9869 29.25 27.1269 29.25 25.1875V22.4737C28.1653 22.0904 27.2511 21.3359 26.6689 20.3437C26.0867 19.3514 25.8741 18.1853 26.0686 17.0515C26.263 15.9176 26.8521 14.889 27.7316 14.1475C28.6112 13.4059 29.7246 12.9992 30.875 12.9992C32.0254 12.9992 33.1388 13.4059 34.0184 14.1475C34.8979 14.889 35.487 15.9176 35.6814 17.0515C35.8759 18.1853 35.6633 19.3514 35.0811 20.3437C34.4989 21.3359 33.5847 22.0904 32.5 22.4737V25.1875C32.5 27.9888 31.3872 30.6755 29.4063 32.6563C27.4255 34.6372 24.7388 35.75 21.9375 35.75C19.1362 35.75 16.4495 34.6372 14.4687 32.6563C12.4878 30.6755 11.375 27.9888 11.375 25.1875V24.2401C9.10313 23.8555 7.04082 22.6789 5.5536 20.9189C4.06638 19.1589 3.2503 16.9292 3.25 14.625L3.25 6.5C3.25 5.63805 3.59241 4.8114 4.2019 4.2019C4.8114 3.59241 5.63805 3.25 6.5 3.25H8.125C8.55598 3.25 8.9693 3.4212 9.27405 3.72595C9.5788 4.0307 9.75 4.44402 9.75 4.875C9.75 5.30598 9.5788 5.7193 9.27405 6.02405C8.9693 6.3288 8.55598 6.5 8.125 6.5H6.5V14.625C6.5 16.3489 7.18482 18.0022 8.40381 19.2212C9.62279 20.4402 11.2761 21.125 13 21.125C14.7239 21.125 16.3772 20.4402 17.5962 19.2212C18.8152 18.0022 19.5 16.3489 19.5 14.625V6.5H17.875C17.444 6.5 17.0307 6.3288 16.726 6.02405C16.4212 5.7193 16.25 5.30598 16.25 4.875C16.25 4.44402 16.4212 4.0307 16.726 3.72595C17.0307 3.4212 17.444 3.25 17.875 3.25H19.5C20.362 3.25 21.1886 3.59241 21.7981 4.2019C22.4076 4.8114 22.75 5.63805 22.75 6.5V14.625C22.7497 16.9292 21.9336 19.1589 20.4464 20.9189C18.9592 22.6789 16.8969 23.8555 14.625 24.2401ZM30.875 19.5C31.306 19.5 31.7193 19.3288 32.024 19.024C32.3288 18.7193 32.5 18.306 32.5 17.875C32.5 17.444 32.3288 17.0307 32.024 16.726C31.7193 16.4212 31.306 16.25 30.875 16.25C30.444 16.25 30.0307 16.4212 29.726 16.726C29.4212 17.0307 29.25 17.444 29.25 17.875C29.25 18.306 29.4212 18.7193 29.726 19.024C30.0307 19.3288 30.444 19.5 30.875 19.5Z" fill="#333333"/>
</svg>
