<svg width="39" height="39" viewBox="0 0 39 39" fill="none" xmlns="http://www.w3.org/2000/svg">
<path d="M27.625 16.25C28.7625 15.1125 30.3712 16.25 31.6875 16.25C32.7649 16.25 33.7983 15.822 34.5601 15.0601C35.322 14.2983 35.75 13.2649 35.75 12.1875C35.75 11.1101 35.322 10.0767 34.5601 9.31488C33.7983 8.55301 32.7649 8.125 31.6875 8.125C31.472 8.125 31.2653 8.0394 31.113 7.88702C30.9606 7.73465 30.875 7.52799 30.875 7.3125C30.875 6.23506 30.447 5.20175 29.6851 4.43988C28.9233 3.67801 27.8899 3.25 26.8125 3.25C25.7351 3.25 24.7017 3.67801 23.9399 4.43988C23.178 5.20175 22.75 6.23506 22.75 7.3125C22.75 8.62875 23.8875 10.2375 22.75 11.375L11.375 22.75C10.2375 23.8875 8.62875 22.75 7.3125 22.75C6.23506 22.75 5.20175 23.178 4.43988 23.9399C3.67801 24.7017 3.25 25.7351 3.25 26.8125C3.25 27.8899 3.67801 28.9233 4.43988 29.6851C5.20175 30.447 6.23506 30.875 7.3125 30.875C7.7675 30.875 8.125 31.2325 8.125 31.6875C8.125 32.7649 8.55301 33.7983 9.31488 34.5601C10.0767 35.322 11.1101 35.75 12.1875 35.75C13.2649 35.75 14.2983 35.322 15.0601 34.5601C15.822 33.7983 16.25 32.7649 16.25 31.6875C16.25 30.3712 15.1125 28.7625 16.25 27.625L27.625 16.25Z" stroke="#333333" stroke-width="3" stroke-linecap="round" stroke-linejoin="round"/>
</svg>
