<svg width="38" height="38" viewBox="0 0 38 38" fill="none" xmlns="http://www.w3.org/2000/svg">
<path d="M37.2577 18.2771C37.2028 18.1569 35.9025 15.2698 33.0302 12.3975C29.1872 8.56039 24.3437 6.53125 18.9999 6.53125C13.6562 6.53125 8.81264 8.56039 4.97405 12.3975C2.10179 15.2698 0.801474 18.1569 0.742099 18.2771C0.641537 18.5051 0.5896 18.7516 0.5896 19.0007C0.5896 19.2499 0.641537 19.4964 0.742099 19.7244C0.797021 19.8461 2.09733 22.7317 4.97108 25.604C8.81264 29.4411 13.6562 31.4688 18.9999 31.4688C24.3437 31.4688 29.1872 29.4411 33.0243 25.604C35.898 22.7317 37.1983 19.8461 37.2533 19.7244C37.3545 19.4967 37.4072 19.2504 37.408 19.0012C37.4088 18.752 37.3576 18.5054 37.2577 18.2771ZM30.4207 23.1755C27.2337 26.3135 23.3922 27.9062 18.9999 27.9062C14.6076 27.9062 10.7661 26.3135 7.58358 23.1741C6.33128 21.9349 5.25406 20.5306 4.38179 19C5.25432 17.47 6.33152 16.0662 7.58358 14.8274C10.7676 11.6865 14.6076 10.0938 18.9999 10.0938C23.3922 10.0938 27.2323 11.6865 30.4162 14.8274C31.6684 16.0661 32.7456 17.4699 33.618 19C32.7456 20.5305 31.6684 21.9348 30.4162 23.1741L30.4207 23.1755ZM18.9999 12.4688C17.7082 12.4688 16.4454 12.8518 15.3713 13.5695C14.2973 14.2871 13.4602 15.3072 12.9658 16.5006C12.4715 17.694 12.3421 19.0072 12.5942 20.2742C12.8462 21.5411 13.4682 22.7049 14.3816 23.6183C15.295 24.5317 16.4588 25.1537 17.7257 25.4058C18.9927 25.6578 20.3059 25.5284 21.4993 25.0341C22.6927 24.5398 23.7128 23.7026 24.4304 22.6286C25.1481 21.5545 25.5312 20.2918 25.5312 19C25.5292 17.2684 24.8405 15.6083 23.616 14.3839C22.3916 13.1595 20.7315 12.4707 18.9999 12.4688ZM18.9999 21.9688C18.4127 21.9688 17.8388 21.7946 17.3506 21.4684C16.8624 21.1422 16.4818 20.6786 16.2571 20.1361C16.0324 19.5936 15.9737 18.9967 16.0882 18.4208C16.2028 17.8449 16.4855 17.316 16.9007 16.9008C17.3159 16.4856 17.8449 16.2028 18.4207 16.0883C18.9966 15.9737 19.5935 16.0325 20.136 16.2572C20.6785 16.4819 21.1421 16.8624 21.4683 17.3507C21.7945 17.8389 21.9687 18.4128 21.9687 19C21.9687 19.7874 21.6559 20.5425 21.0991 21.0992C20.5424 21.656 19.7873 21.9688 18.9999 21.9688Z" fill="#333333"/>
</svg>
