<svg width="39" height="39" viewBox="0 0 39 39" fill="none" xmlns="http://www.w3.org/2000/svg">
<path d="M20.2892 34.125C19.3983 34.125 18.9521 33.0479 19.5821 32.4179L20.8321 31.1679C21.0196 30.9804 21.274 30.875 21.5392 30.875H34.125C34.5854 30.875 34.9716 31.031 35.2836 31.343C35.5956 31.655 35.7511 32.0407 35.75 32.5C35.75 32.9604 35.594 33.3466 35.282 33.6586C34.97 33.9706 34.5843 34.1261 34.125 34.125H20.2892ZM20.8571 24.2366C20.4666 24.6272 19.8334 24.6272 19.4429 24.2366L14.7634 19.5571C14.3728 19.1666 14.3728 18.5334 14.7634 18.1429L27.5438 5.3625C27.8688 5.0375 28.255 4.875 28.7024 4.875C29.1498 4.875 29.5355 5.0375 29.8594 5.3625L33.6375 9.14063C33.9625 9.46563 34.125 9.85183 34.125 10.2993C34.125 10.7467 33.9625 11.1323 33.6375 11.4563L20.8571 24.2366ZM19.4443 19.6068C19.8343 19.9968 20.4664 19.9974 20.8571 19.6082L29.515 10.9852C29.9069 10.5949 29.9075 9.96067 29.5165 9.56959L29.4304 9.48354C29.0393 9.09245 28.4051 9.0931 28.0148 9.48497L19.3918 18.1429C19.0026 18.5337 19.0032 19.1657 19.3932 19.5557L19.4443 19.6068ZM8.24688 34.125C7.00104 34.125 5.80288 33.8813 4.65237 33.3938C3.81718 33.0399 3.05648 32.586 2.37029 32.0323C1.93972 31.6849 1.94327 31.0454 2.33523 30.655L11.6835 21.3419C12.0743 20.9527 12.7064 20.9533 13.0964 21.3433L16.6156 24.8625C16.9948 25.2417 17.2927 25.675 17.5094 26.1625C17.726 26.65 17.8344 27.1646 17.8344 27.7063C17.8344 28.2479 17.726 28.769 17.5094 29.2695C17.2927 29.77 16.9948 30.2104 16.6156 30.5906L15.8438 31.3625C14.9771 32.2292 13.9685 32.9062 12.818 33.3938C11.6675 33.8813 10.4688 34.125 9.22188 34.125H8.24688ZM8.24688 30.875H9.22188C10.0344 30.875 10.8198 30.719 11.5781 30.407C12.3365 30.095 13 29.6552 13.5688 29.0875L14.3406 28.3156C14.5031 28.1531 14.5844 27.9635 14.5844 27.7469C14.5844 27.5302 14.5031 27.3406 14.3406 27.1781L13.0951 25.9326C12.7056 25.5431 12.0745 25.542 11.6835 25.93L7.36372 30.2181C7.14499 30.4352 7.24994 30.8003 7.55625 30.8344C7.8 30.8615 8.03021 30.875 8.24688 30.875Z" fill="#333333"/>
</svg>
