<svg width="39" height="39" viewBox="0 0 39 39" fill="none" xmlns="http://www.w3.org/2000/svg">
<path d="M15.5203 8.85143C15.8648 9.48112 16.0411 10.175 16.0647 10.8924C17.0688 10.7593 18.0807 10.6928 19.0937 10.6934C20.418 10.6934 21.7034 10.8055 22.9327 11.0159C22.9323 10.2602 23.1202 9.51629 23.4795 8.85143C24.9095 6.24412 28.6917 5.72656 31.9295 7.69524C35.1657 9.66312 36.6315 13.373 35.2023 15.9811C34.8634 16.5991 34.3762 17.1232 33.7845 17.5062C34.5279 18.7688 34.9374 20.1501 34.9374 21.5963C34.9374 27.6169 27.8443 32.5001 19.0937 32.5001C10.343 32.5001 3.2499 27.6186 3.2499 21.5963C3.2499 19.9876 3.7569 18.4592 4.6669 17.0837C4.3176 16.7673 4.02374 16.3946 3.79753 15.9811C2.36753 13.373 3.83409 9.66312 7.07109 7.69524C10.3081 5.72656 14.0911 6.24412 15.5203 8.85143Z" stroke="#333333" stroke-width="3" stroke-linejoin="round"/>
<path d="M9.75 15.4376C10.6475 15.4376 11.375 14.71 11.375 13.8126C11.375 12.9151 10.6475 12.1876 9.75 12.1876C8.85254 12.1876 8.125 12.9151 8.125 13.8126C8.125 14.71 8.85254 15.4376 9.75 15.4376Z" fill="#333333"/>
<path d="M16.3767 24.8431C17.2742 24.8431 18.0017 24.1155 18.0017 23.2181C18.0017 22.3206 17.2742 21.5931 16.3767 21.5931C15.4792 21.5931 14.7517 22.3206 14.7517 23.2181C14.7517 24.1155 15.4792 24.8431 16.3767 24.8431Z" fill="#333333"/>
<path d="M22.8767 24.8431C23.7742 24.8431 24.5017 24.1155 24.5017 23.2181C24.5017 22.3206 23.7742 21.5931 22.8767 21.5931C21.9792 21.5931 21.2517 22.3206 21.2517 23.2181C21.2517 24.1155 21.9792 24.8431 22.8767 24.8431Z" fill="#333333"/>
<path d="M29.25 15.4376C30.1475 15.4376 30.875 14.71 30.875 13.8126C30.875 12.9151 30.1475 12.1876 29.25 12.1876C28.3525 12.1876 27.625 12.9151 27.625 13.8126C27.625 14.71 28.3525 15.4376 29.25 15.4376Z" fill="#333333"/>
</svg>
