<svg width="39" height="39" viewBox="0 0 39 39" fill="none" xmlns="http://www.w3.org/2000/svg">
<g clip-path="url(#clip0_196_243)">
<path d="M19.5 35.75C28.4746 35.75 35.75 28.4746 35.75 19.5C35.75 10.5254 28.4746 3.25 19.5 3.25C10.5254 3.25 3.25 10.5254 3.25 19.5C3.25 28.4746 10.5254 35.75 19.5 35.75Z" stroke="#333333" stroke-width="3"/>
<path d="M19.5 9.75V29.25M24.375 15.4375C24.375 13.195 22.1926 11.375 19.5 11.375C16.8074 11.375 14.625 13.195 14.625 15.4375C14.625 17.68 16.8074 19.5 19.5 19.5C22.1926 19.5 24.375 21.32 24.375 23.5625C24.375 25.805 22.1926 27.625 19.5 27.625C16.8074 27.625 14.625 25.805 14.625 23.5625" stroke="#333333" stroke-width="3" stroke-linecap="round"/>
</g>
<defs>
<clipPath id="clip0_196_243">
<rect width="39" height="39" fill="white"/>
</clipPath>
</defs>
</svg>
