<svg width="39" height="39" viewBox="0 0 39 39" fill="none" xmlns="http://www.w3.org/2000/svg">
<path d="M15.7348 12.2834L19.4999 16.0469L29.8577 5.68913C30.1595 5.3872 30.5178 5.14769 30.9122 4.98428C31.3066 4.82087 31.7294 4.73676 32.1563 4.73676C32.5832 4.73676 33.0059 4.82087 33.4003 4.98428C33.7947 5.14769 34.153 5.3872 34.4548 5.68913L35.6037 6.838L15.7348 26.7053C16.3237 28.094 16.4113 29.6444 15.9824 31.0906C15.5536 32.5369 14.6351 33.7889 13.3844 34.6322C12.1337 35.4755 10.6286 35.8576 9.12704 35.7128C7.62552 35.5681 6.22108 34.9057 5.15443 33.839C4.08777 32.7724 3.42532 31.3679 3.2806 29.8664C3.13588 28.3649 3.51791 26.8598 4.36122 25.6091C5.20452 24.3583 6.45658 23.4398 7.90282 23.011C9.34906 22.5822 10.8994 22.6697 12.2882 23.2586L16.0533 19.4951L12.2882 15.73C10.8994 16.3189 9.34906 16.4064 7.90282 15.9776C6.45658 15.5488 5.20452 14.6303 4.36122 13.3796C3.51791 12.1288 3.13588 10.6237 3.2806 9.12221C3.42532 7.62069 4.08777 6.21626 5.15443 5.1496C6.22108 4.08295 7.62552 3.4205 9.12704 3.27578C10.6286 3.13106 12.1337 3.51309 13.3844 4.35639C14.6351 5.1997 15.5536 6.45176 15.9824 7.898C16.4113 9.34424 16.3237 10.8946 15.7348 12.2834ZM9.74995 12.9951C10.6119 12.9951 11.4386 12.6527 12.048 12.0432C12.6575 11.4337 12.9999 10.6071 12.9999 9.74513C12.9999 8.88317 12.6575 8.05652 12.048 7.44703C11.4386 6.83754 10.6119 6.49513 9.74995 6.49513C8.888 6.49513 8.06135 6.83754 7.45185 7.44703C6.84236 8.05652 6.49995 8.88317 6.49995 9.74513C6.49995 10.6071 6.84236 11.4337 7.45185 12.0432C8.06135 12.6527 8.888 12.9951 9.74995 12.9951ZM9.74995 32.4951C10.6119 32.4951 11.4386 32.1527 12.048 31.5432C12.6575 30.9337 12.9999 30.1071 12.9999 29.2451C12.9999 28.3832 12.6575 27.5565 12.048 26.947C11.4386 26.3375 10.6119 25.9951 9.74995 25.9951C8.888 25.9951 8.06135 26.3375 7.45185 26.947C6.84236 27.5565 6.49995 28.3832 6.49995 29.2451C6.49995 30.1071 6.84236 30.9337 7.45185 31.5432C8.06135 32.1527 8.888 32.4951 9.74995 32.4951ZM25.2443 21.7913L35.6037 32.1506L34.4548 33.2995C34.153 33.6014 33.7947 33.8409 33.4003 34.0044C33.0059 34.1678 32.5832 34.2519 32.1563 34.2519C31.7294 34.2519 31.3066 34.1678 30.9122 34.0044C30.5178 33.8409 30.1595 33.6014 29.8577 33.2995L21.7977 25.2395L25.2443 21.7913Z" fill="#333333"/>
</svg>
