<svg width="93" height="46" viewBox="0 0 93 46" fill="none" xmlns="http://www.w3.org/2000/svg">
<path d="M11.488 37V8.2H18.336V37H11.488ZM0.16 25.8V19.4H29.664V25.8H0.16ZM42.484 45V3.4L46.132 7.176H33.012V0.199997H50.804V45H42.484ZM74.539 45.64C71.3817 45.64 68.2883 45.192 65.259 44.296C62.2723 43.3573 59.755 42.0773 57.707 40.456L61.227 33.992C62.8483 35.3147 64.811 36.3813 67.115 37.192C69.4617 38.0027 71.8937 38.408 74.411 38.408C77.355 38.408 79.659 37.7893 81.323 36.552C83.0297 35.3147 83.883 33.6507 83.883 31.56C83.883 30.152 83.5203 28.9147 82.795 27.848C82.1123 26.7813 80.875 25.9707 79.083 25.416C77.3337 24.8613 74.923 24.584 71.851 24.584H61.035L63.339 0.199997H89.643V7.176H66.411L70.763 3.208L69.035 21.448L64.683 17.544H73.707C78.1443 17.544 81.707 18.1413 84.395 19.336C87.1257 20.488 89.1097 22.1093 90.347 24.2C91.627 26.248 92.267 28.5947 92.267 31.24C92.267 33.8427 91.627 36.232 90.347 38.408C89.067 40.584 87.1043 42.3333 84.459 43.656C81.8563 44.9787 78.5497 45.64 74.539 45.64Z" fill="white"/>
</svg>
