<svg width="61" height="61" viewBox="0 0 61 61" fill="none" xmlns="http://www.w3.org/2000/svg">
<path fill-rule="evenodd" clip-rule="evenodd" d="M44.7823 40.3333C40.4003 29.2682 35.2855 26.3518 35.2855 20.8333V14.3333H36.3569C36.6411 14.3333 36.9136 14.2192 37.1145 14.016C37.3154 13.8129 37.4283 13.5373 37.4283 13.25V11.0833C37.4283 10.796 37.3154 10.5205 37.1145 10.3173C36.9136 10.1141 36.6411 10 36.3569 10H25.6431C25.3589 10 25.0864 10.1141 24.8855 10.3173C24.6846 10.5205 24.5717 10.796 24.5717 11.0833V13.25C24.5717 13.5373 24.6846 13.8129 24.8855 14.016C25.0864 14.2192 25.3589 14.3333 25.6431 14.3333H26.7145V20.8333C26.7145 26.3518 21.5997 29.2682 17.2177 40.3333C15.8227 43.8542 12.24 49 31 49C49.76 49 46.1773 43.8542 44.7823 40.3333ZM41.3175 44.1272C39.8132 44.5822 36.8198 45.1 31 45.1C25.1802 45.1 22.1868 44.5822 20.6825 44.1272C20.149 43.9668 19.9411 43.3407 20.1297 42.7665C20.6011 41.3148 21.4904 38.8058 23.1532 36.0043C27.2159 29.1598 31.4307 37.0812 34.9384 37.0812C38.4461 37.0812 37.484 33.699 38.8468 36.0043C40.1009 38.1373 41.1151 40.4055 41.8703 42.7665C42.0589 43.3407 41.851 43.9647 41.3175 44.1272Z" fill="white"/>
<circle cx="30.5" cy="30.5" r="28.5" stroke="white" stroke-width="4"/>
</svg>
