<?xml version="1.0" encoding="utf-8"?>
<!-- Generator: Adobe Illustrator 27.7.0, SVG Export Plug-In . SVG Version: 6.00 Build 0)  -->
<svg version="1.1" id="Capa_1" xmlns="http://www.w3.org/2000/svg" xmlns:xlink="http://www.w3.org/1999/xlink" x="0px" y="0px"
	 viewBox="0 0 51 51" style="enable-background:new 0 0 51 51;" xml:space="preserve">
<style type="text/css">
	.st0{fill:none;stroke:#FFFFFF;stroke-width:3;stroke-miterlimit:10;}
</style>
<path class="st0" d="M31.1,10.7c2.2,0.4,4.3,1.5,5.9,3.1c1.6,1.6,2.7,3.6,3.1,5.9 M31.1,1.6c4.6,0.5,8.9,2.6,12.2,5.9
	c3.3,3.3,5.4,7.6,5.9,12.2 M46.9,37.8v6.8c0,0.6-0.1,1.3-0.4,1.8c-0.3,0.6-0.6,1.1-1.1,1.5c-0.5,0.4-1,0.8-1.6,1
	c-0.6,0.2-1.2,0.3-1.9,0.2c-7-0.8-13.7-3.2-19.6-7C16.9,38.7,12.2,34,8.7,28.5c-3.8-5.9-6.2-12.7-7-19.7C1.7,8.2,1.7,7.6,1.9,7
	c0.2-0.6,0.5-1.1,1-1.6c0.4-0.5,0.9-0.8,1.5-1.1C5,4,5.6,3.9,6.2,3.9h6.8c1.1,0,2.2,0.4,3,1.1c0.8,0.7,1.4,1.7,1.5,2.8
	c0.3,2.2,0.8,4.3,1.6,6.4c0.3,0.8,0.4,1.7,0.2,2.6c-0.2,0.9-0.6,1.6-1.2,2.3l-2.9,2.9c3.2,5.7,8,10.4,13.6,13.7l2.9-2.9
	c0.6-0.6,1.4-1,2.2-1.2c0.9-0.2,1.7-0.1,2.5,0.2c2.1,0.8,4.2,1.3,6.4,1.6c1.1,0.2,2.1,0.7,2.8,1.6C46.6,35.6,47,36.7,46.9,37.8z"/>
</svg>
