<svg width="51" height="51" viewBox="0 0 51 51" fill="none" xmlns="http://www.w3.org/2000/svg">
<path d="M29.776 13.6452C31.6464 14.0094 33.3654 14.9225 34.7129 16.2674C36.0605 17.6123 36.9752 19.328 37.3401 21.1949M29.776 6C33.662 6.43088 37.2857 8.16775 40.0522 10.9254C42.8186 13.6831 44.5634 17.2977 45 21.1758M43.085 36.428V42.1619C43.0872 42.6942 42.978 43.2211 42.7643 43.7088C42.5506 44.1965 42.2373 44.6343 41.8443 44.9942C41.4513 45.354 40.9873 45.628 40.4821 45.7985C39.9769 45.9691 39.4416 46.0324 38.9104 45.9845C33.0177 45.3454 27.3574 43.3357 22.3843 40.1168C17.7574 37.1823 13.8346 33.267 10.8945 28.649C7.65815 23.6628 5.64412 17.9858 5.01554 12.0779C4.96769 11.5494 5.03062 11.0167 5.20034 10.5138C5.37005 10.0109 5.64283 9.5487 6.0013 9.15675C6.35977 8.7648 6.79609 8.45165 7.28246 8.23722C7.76884 8.0228 8.29461 7.9118 8.82632 7.9113H14.5712C15.5006 7.90217 16.4015 8.23064 17.1062 8.83548C17.8108 9.44032 18.2711 10.2803 18.4011 11.1987C18.6436 13.0337 19.0933 14.8354 19.7416 16.5695C19.9993 17.2536 20.055 17.9971 19.9023 18.7119C19.7496 19.4266 19.3947 20.0827 18.8799 20.6024L16.4479 23.0297C19.1739 27.8148 23.1435 31.7767 27.9377 34.4975L30.3697 32.0702C30.8903 31.5563 31.5477 31.2022 32.2638 31.0497C32.9799 30.8973 33.7248 30.9529 34.4102 31.2101C36.1476 31.8572 37.9528 32.306 39.7913 32.548C40.7215 32.679 41.5711 33.1466 42.1784 33.862C42.7857 34.5774 43.1083 35.4906 43.085 36.428Z" stroke="white" stroke-width="3" stroke-linecap="round" stroke-linejoin="round"/>
</svg>
