<?xml version="1.0" encoding="utf-8"?>
<!-- Generator: Adobe Illustrator 27.7.0, SVG Export Plug-In . SVG Version: 6.00 Build 0)  -->
<svg version="1.1" id="Capa_1" xmlns="http://www.w3.org/2000/svg" xmlns:xlink="http://www.w3.org/1999/xlink" x="0px" y="0px"
	 viewBox="0 0 51 51" style="enable-background:new 0 0 51 51;" xml:space="preserve">
<style type="text/css">
	.st0{fill:#FFFFFF;}
</style>
<path class="st0" d="M43.4,7.4C38.6,2.6,32.3,0,25.6,0C11.7,0,0.4,11.3,0.4,25.3c0,4.5,1.2,8.8,3.4,12.6L0.2,51l13.3-3.5
	c3.7,2,7.8,3.1,12,3.1h0C39.5,50.6,51,39.2,51,25.3C51,18.5,48.1,12.2,43.4,7.4z M25.6,46.3c-3.8,0-7.4-1-10.7-2.9l-0.8-0.5L6.3,45
	l2.1-7.8l-0.5-0.8c-2.1-3.3-3.2-7.2-3.2-11.2c0-11.6,9.4-21,20.9-21c5.6,0,10.8,2.2,14.8,6.2c3.9,4,6.4,9.2,6.4,14.9
	C46.7,36.9,37.1,46.3,25.6,46.3z M37.1,30.6c-0.6-0.3-3.7-1.8-4.3-2c-0.6-0.2-1-0.3-1.4,0.3s-1.6,2-2,2.5c-0.4,0.4-0.7,0.5-1.4,0.2
	c-3.7-1.9-6.1-3.3-8.6-7.5c-0.6-1.1,0.6-1,1.8-3.4c0.2-0.4,0.1-0.8-0.1-1.1c-0.2-0.3-1.4-3.4-1.9-4.7c-0.5-1.2-1-1.1-1.4-1.1
	c-0.4,0-0.8,0-1.2,0c-0.4,0-1.1,0.2-1.7,0.8c-0.6,0.6-2.2,2.2-2.2,5.3c0,3.1,2.3,6.1,2.6,6.5c0.3,0.4,4.4,6.8,10.7,9.5
	c4,1.7,5.6,1.9,7.5,1.6c1.2-0.2,3.7-1.5,4.2-3s0.5-2.7,0.4-3C38.1,31,37.7,30.9,37.1,30.6z"/>
</svg>
