<svg width="95" height="19" viewBox="0 0 95 19" fill="none" xmlns="http://www.w3.org/2000/svg">
<path d="M9.49992 1.58331L11.9462 6.53915L17.4166 7.33873L13.4583 11.1941L14.3924 16.6408L9.49992 14.0679L4.60742 16.6408L5.54158 11.1941L1.58325 7.33873L7.05367 6.53915L9.49992 1.58331Z" fill="#FFE600" stroke="#FFE600" stroke-linecap="round" stroke-linejoin="round"/>
<path d="M28.4999 1.58331L30.9462 6.53915L36.4166 7.33873L32.4583 11.1941L33.3924 16.6408L28.4999 14.0679L23.6074 16.6408L24.5416 11.1941L20.5833 7.33873L26.0537 6.53915L28.4999 1.58331Z" fill="#FFE600" stroke="#FFE600" stroke-linecap="round" stroke-linejoin="round"/>
<path d="M47.4999 1.58331L49.9462 6.53915L55.4166 7.33873L51.4583 11.1941L52.3924 16.6408L47.4999 14.0679L42.6074 16.6408L43.5416 11.1941L39.5833 7.33873L45.0537 6.53915L47.4999 1.58331Z" fill="#FFE600" stroke="#FFE600" stroke-linecap="round" stroke-linejoin="round"/>
<path d="M66.4999 1.58331L68.9462 6.53915L74.4166 7.33873L70.4583 11.1941L71.3924 16.6408L66.4999 14.0679L61.6074 16.6408L62.5416 11.1941L58.5833 7.33873L64.0537 6.53915L66.4999 1.58331Z" fill="#FFE600" stroke="#FFE600" stroke-linecap="round" stroke-linejoin="round"/>
<path d="M85.4999 1.58331L87.9462 6.53915L93.4166 7.33873L89.4583 11.1941L90.3924 16.6408L85.4999 14.0679L80.6074 16.6408L81.5416 11.1941L77.5833 7.33873L83.0537 6.53915L85.4999 1.58331Z" fill="#FFE600" stroke="#FFE600" stroke-linecap="round" stroke-linejoin="round"/>
</svg>
