<svg width="44" height="44" viewBox="0 0 44 44" fill="none" xmlns="http://www.w3.org/2000/svg">
<circle cx="22" cy="22" r="22" fill="#E6FEC2"/>
<path d="M16.4001 8.66675H27.6001C31.8667 8.66675 35.3334 12.1334 35.3334 16.4001V27.6001C35.3334 29.6511 34.5187 31.6181 33.0684 33.0684C31.6181 34.5187 29.6511 35.3334 27.6001 35.3334H16.4001C12.1334 35.3334 8.66675 31.8667 8.66675 27.6001V16.4001C8.66675 14.3491 9.48151 12.3821 10.9318 10.9318C12.3821 9.48151 14.3491 8.66675 16.4001 8.66675ZM16.1334 11.3334C14.8604 11.3334 13.6395 11.8391 12.7393 12.7393C11.8391 13.6395 11.3334 14.8604 11.3334 16.1334V27.8667C11.3334 30.5201 13.4801 32.6667 16.1334 32.6667H27.8667C29.1398 32.6667 30.3607 32.161 31.2609 31.2609C32.161 30.3607 32.6667 29.1398 32.6667 27.8667V16.1334C32.6667 13.4801 30.5201 11.3334 27.8667 11.3334H16.1334ZM29.0001 13.3334C29.4421 13.3334 29.866 13.509 30.1786 13.8216C30.4912 14.1341 30.6667 14.5581 30.6667 15.0001C30.6667 15.4421 30.4912 15.866 30.1786 16.1786C29.866 16.4912 29.4421 16.6667 29.0001 16.6667C28.5581 16.6667 28.1341 16.4912 27.8216 16.1786C27.509 15.866 27.3334 15.4421 27.3334 15.0001C27.3334 14.5581 27.509 14.1341 27.8216 13.8216C28.1341 13.509 28.5581 13.3334 29.0001 13.3334ZM22.0001 15.3334C23.7682 15.3334 25.4639 16.0358 26.7141 17.286C27.9644 18.5363 28.6667 20.232 28.6667 22.0001C28.6667 23.7682 27.9644 25.4639 26.7141 26.7141C25.4639 27.9644 23.7682 28.6667 22.0001 28.6667C20.232 28.6667 18.5363 27.9644 17.286 26.7141C16.0358 25.4639 15.3334 23.7682 15.3334 22.0001C15.3334 20.232 16.0358 18.5363 17.286 17.286C18.5363 16.0358 20.232 15.3334 22.0001 15.3334ZM22.0001 18.0001C20.9392 18.0001 19.9218 18.4215 19.1717 19.1717C18.4215 19.9218 18.0001 20.9392 18.0001 22.0001C18.0001 23.0609 18.4215 24.0784 19.1717 24.8285C19.9218 25.5787 20.9392 26.0001 22.0001 26.0001C23.0609 26.0001 24.0784 25.5787 24.8285 24.8285C25.5787 24.0784 26.0001 23.0609 26.0001 22.0001C26.0001 20.9392 25.5787 19.9218 24.8285 19.1717C24.0784 18.4215 23.0609 18.0001 22.0001 18.0001Z" fill="#BCE580"/>
</svg>
