<svg width="26" height="26" viewBox="0 0 26 26" fill="none" xmlns="http://www.w3.org/2000/svg">
<path d="M22.4328 15.929C22.308 15.0619 21.6385 14.3859 20.7766 14.1844C17.4265 13.3992 16.5867 11.47 16.445 9.3302C15.8509 9.2197 14.794 9.1001 13 9.1001C11.206 9.1001 10.1491 9.2197 9.55498 9.3302C9.41328 11.47 8.57348 13.3992 5.22338 14.1844C4.36148 14.3872 3.69198 15.0619 3.56718 15.929L2.92108 20.4036C2.69358 21.9792 3.85058 23.4001 5.45998 23.4001H20.54C22.1481 23.4001 23.3064 21.9792 23.0789 20.4036L22.4328 15.929ZM13 20.1397C11.1865 20.1397 9.71618 18.6837 9.71618 16.8897C9.71618 15.0957 11.1865 13.6397 13 13.6397C14.8135 13.6397 16.2838 15.0957 16.2838 16.8897C16.2838 18.6837 14.8122 20.1397 13 20.1397ZM25.935 7.8001C25.9038 5.8501 20.9404 2.6014 13 2.6001C5.05828 2.6014 0.0948762 5.8501 0.0649762 7.8001C0.0350762 9.7501 0.0922763 12.2877 3.36048 11.8652C7.18378 11.3699 6.94848 10.0348 6.94848 8.1264C6.94848 6.7952 10.0581 6.4741 13 6.4741C15.9419 6.4741 19.0502 6.7952 19.0515 8.1264C19.0515 10.0348 18.8162 11.3699 22.6395 11.8652C25.9064 12.2877 25.9649 9.7501 25.935 7.8001Z" fill="#333333"/>
</svg>
